# Blender v2.77 (sub 0) OBJ File: ''
# www.blender.org
o Cube
v 1.000000 -1.000000 -1.000000
v 1.000000 -1.000000 1.000000
v -1.000000 -1.000000 1.000000
v -1.000000 -1.000000 -1.000000
v 1.000000 1.000000 -0.999999
v 0.999999 1.000000 1.000001
v -1.000000 1.000000 1.000000
v -1.000000 1.000000 -1.000000
vt 0.3331 0.9998
vt 0.0002 0.6669
vt 0.0002 0.9998
vt 0.0002 0.0002
vt 0.3331 0.3331
vt 0.0002 0.3331
vt 0.0002 0.3335
vt 0.3331 0.6665
vt 0.0002 0.6665
vt 0.3335 0.3335
vt 0.6665 0.6665
vt 0.3335 0.6665
vt 0.9998 0.0002
vt 0.6669 0.3331
vt 0.9998 0.3331
vt 0.6665 0.3331
vt 0.3335 0.0002
vt 0.3335 0.3331
vt 0.3331 0.6669
vt 0.3331 0.0002
vt 0.3331 0.3335
vt 0.6665 0.3335
vt 0.6669 0.0002
vt 0.6665 0.0002
vn 0.5773 -0.5773 0.5773
vn -0.5773 -0.5773 -0.5773
vn 0.5773 -0.5773 -0.5773
vn -0.5773 0.5773 -0.5773
vn 0.5773 0.5773 0.5773
vn 0.5773 0.5773 -0.5773
vn -0.5773 -0.5773 0.5773
vn -0.5773 0.5773 0.5773
s 1
f 2/1/1 4/2/2 1/3/3
f 8/4/4 6/5/5 5/6/6
f 5/7/6 2/8/1 1/9/3
f 6/10/5 3/11/7 2/12/1
f 3/13/7 8/14/4 4/15/2
f 1/16/3 8/17/4 5/18/6
f 2/1/1 3/19/7 4/2/2
f 8/4/4 7/20/8 6/5/5
f 5/7/6 6/21/5 2/8/1
f 6/10/5 7/22/8 3/11/7
f 3/13/7 7/23/8 8/14/4
f 1/16/3 4/24/2 8/17/4
